<svg width="268" height="101" viewBox="0 0 268 101" fill="none" xmlns="http://www.w3.org/2000/svg">
<path d="M0.801706 48.7336C0.801706 43.4389 0.690239 39.9277 0.467306 38.2H7.07171C7.29464 40.0392 7.40611 42.5193 7.40611 45.6404H7.65691C8.88304 43.0767 10.7501 41.0703 13.2581 39.6212C15.8218 38.1164 18.6642 37.364 21.7853 37.364C26.6898 37.364 30.3682 38.9524 32.8205 42.1292C35.2728 45.306 36.4989 50.0433 36.4989 56.3412V80H29.3929V56.2576C29.3929 51.7989 28.6405 48.4828 27.1357 46.3092C25.6309 44.1356 23.3458 43.0488 20.2805 43.0488C17.9397 43.0488 15.8218 43.6619 13.9269 44.888C12.032 46.0584 10.555 47.7304 9.49611 49.904C8.43717 52.0219 7.90771 54.4184 7.90771 57.0936V80H0.801706V48.7336ZM61.3973 80.836C56.6043 80.836 52.9537 79.2755 50.4457 76.1544C47.9935 73.0333 46.7673 68.4353 46.7673 62.3604V38.2H53.8733V62.444C53.8733 70.9155 56.8829 75.1512 62.9021 75.1512C65.2429 75.1512 67.3608 74.566 69.2557 73.3956C71.1507 72.1695 72.6276 70.4975 73.6865 68.3796C74.7455 66.206 75.2749 63.7816 75.2749 61.1064V38.2H82.3809V71.1384C82.3809 73.9251 82.6317 76.8789 83.1333 80H76.6125C76.1109 77.5477 75.8323 75.0676 75.7765 72.5596H75.5257C74.2996 75.1233 72.4047 77.1576 69.8409 78.6624C67.3329 80.1115 64.5184 80.836 61.3973 80.836ZM92.8943 48.7336C92.8943 44.4979 92.755 40.9867 92.4763 38.2H98.8299C99.0528 40.4293 99.1643 42.9095 99.1643 45.6404H99.4151C100.53 43.0767 102.285 41.0703 104.682 39.6212C107.078 38.1164 109.754 37.364 112.707 37.364C115.661 37.364 118.197 38.1164 120.315 39.6212C122.433 41.126 123.854 43.216 124.579 45.8912C125.749 43.2717 127.533 41.2096 129.929 39.7048C132.326 38.1443 135.029 37.364 138.038 37.364C142.608 37.364 146.175 38.8409 148.739 41.7948C151.359 44.7487 152.668 48.8729 152.668 54.1676V80H145.646V54.7528C145.646 50.9629 144.838 48.0648 143.221 46.0584C141.661 44.052 139.376 43.0488 136.366 43.0488C133.412 43.0488 130.988 44.1635 129.093 46.3928C127.198 48.5664 126.251 51.3809 126.251 54.8364V80H119.228V55.0872C119.228 51.0187 118.504 48.0091 117.055 46.0584C115.606 44.052 113.404 43.0488 110.45 43.0488C108.611 43.0488 106.883 43.6061 105.267 44.7208C103.651 45.8355 102.341 47.3124 101.338 49.1516C100.39 50.9908 99.9167 52.9693 99.9167 55.0872V80H92.8943V48.7336ZM168.123 30.9268C166.563 30.9268 165.337 30.5088 164.445 29.6728C163.553 28.8368 163.107 27.6943 163.107 26.2452C163.107 24.7961 163.553 23.6536 164.445 22.8176C165.337 21.9259 166.563 21.48 168.123 21.48C169.684 21.48 170.91 21.9259 171.802 22.8176C172.749 23.6536 173.223 24.7961 173.223 26.2452C173.223 27.6943 172.749 28.8368 171.802 29.6728C170.91 30.5088 169.684 30.9268 168.123 30.9268ZM164.612 38.2H171.718V80H164.612V38.2ZM211.605 74.2316H211.354C210.184 76.2937 208.484 77.91 206.255 79.0804C204.081 80.2508 201.629 80.836 198.898 80.836C195.387 80.836 192.293 79.9443 189.618 78.1608C186.999 76.3773 184.964 73.8415 183.515 70.5532C182.122 67.2649 181.425 63.4193 181.425 59.0164C181.425 52.2727 182.958 46.978 186.023 43.1324C189.144 39.2868 193.408 37.364 198.814 37.364C201.712 37.364 204.36 38.0328 206.756 39.3704C209.208 40.708 210.992 42.4915 212.107 44.7208H212.274C212.274 42.7144 212.357 40.5408 212.525 38.2H219.045C218.822 41.4325 218.711 44.9437 218.711 48.7336V100.231H211.605V74.2316ZM200.068 75.402C203.524 75.402 206.31 74.2316 208.428 71.8908C210.546 69.4943 211.605 66.3732 211.605 62.5276V54.92C211.605 51.4645 210.518 48.6221 208.345 46.3928C206.171 44.1635 203.384 43.0488 199.985 43.0488C196.306 43.0488 193.464 44.4143 191.457 47.1452C189.507 49.8761 188.531 53.7775 188.531 58.8492C188.531 63.9209 189.562 67.9616 191.625 70.9712C193.687 73.9251 196.501 75.402 200.068 75.402ZM247.212 80.836C243.088 80.836 239.493 79.9721 236.428 78.2444C233.418 76.4609 231.077 73.9251 229.405 70.6368C227.789 67.3485 226.981 63.5029 226.981 59.1C226.981 54.6971 227.789 50.8515 229.405 47.5632C231.077 44.2749 233.418 41.7669 236.428 40.0392C239.493 38.2557 243.088 37.364 247.212 37.364C253.454 37.364 258.387 39.3147 262.009 43.216C265.688 47.1173 267.527 52.412 267.527 59.1C267.527 65.788 265.688 71.0827 262.009 74.984C258.387 78.8853 253.454 80.836 247.212 80.836ZM247.212 75.402C251.336 75.402 254.569 73.9529 256.91 71.0548C259.25 68.1567 260.421 64.1717 260.421 59.1C260.421 54.0283 259.25 50.0433 256.91 47.1452C254.569 44.2471 251.336 42.798 247.212 42.798C243.144 42.798 239.939 44.2471 237.598 47.1452C235.257 50.0433 234.087 54.0283 234.087 59.1C234.087 64.1717 235.257 68.1567 237.598 71.0548C239.939 73.9529 243.144 75.402 247.212 75.402Z" fill="black"/>
<path d="M8.29361 19.7117H0V29.5724H8.29361V19.7117Z" fill="#008886"/>
<path d="M33.1705 0H24.8729V29.5771H33.1705V0Z" fill="#008886"/>
<path d="M45.603 9.85588H37.3054V29.5724H45.603V9.85588Z" fill="#008886"/>
<path d="M58.0393 17.2608H49.7417V29.5724H58.0393V17.2608Z" fill="#008886"/>
<path d="M70.4717 2.37013H62.1741V29.5723H70.4717V2.37013Z" fill="#008886"/>
<path d="M83 14.7861H74.6105V29.5723H83V14.7861Z" fill="#008886"/>
<path d="M20.7341 12.3258H12.4405V29.5771H20.7341V12.3258Z" fill="#008886"/>
</svg>
